<svg width="192" height="192" viewBox="0 0 192 192" fill="none" xmlns="http://www.w3.org/2000/svg">
  <rect width="192" height="192" rx="24" fill="#0e1117"/>
  <path d="M96 32L160 69V131L96 168L32 131V69L96 32Z" stroke="#fb923c" stroke-width="4" fill="rgba(249,115,22,0.08)"/>
  <path d="M96 56L136 79V121L96 144L56 121V79L96 56Z" stroke="#f97316" stroke-width="2" opacity="0.5" fill="none"/>
  <circle cx="96" cy="100" r="10" fill="#fb923c" opacity="0.8"/>
  <line x1="96" y1="100" x2="96" y2="56" stroke="#f97316" stroke-width="1.5" opacity="0.4"/>
  <line x1="96" y1="100" x2="136" y2="79" stroke="#f97316" stroke-width="1.5" opacity="0.4"/>
  <line x1="96" y1="100" x2="136" y2="121" stroke="#f97316" stroke-width="1.5" opacity="0.4"/>
  <line x1="96" y1="100" x2="96" y2="144" stroke="#f97316" stroke-width="1.5" opacity="0.4"/>
  <line x1="96" y1="100" x2="56" y2="121" stroke="#f97316" stroke-width="1.5" opacity="0.4"/>
  <line x1="96" y1="100" x2="56" y2="79" stroke="#f97316" stroke-width="1.5" opacity="0.4"/>
  <circle cx="96" cy="56" r="4" fill="#f97316" opacity="0.6"/>
  <circle cx="136" cy="79" r="4" fill="#f97316" opacity="0.6"/>
  <circle cx="136" cy="121" r="4" fill="#f97316" opacity="0.6"/>
  <circle cx="96" cy="144" r="4" fill="#f97316" opacity="0.6"/>
  <circle cx="56" cy="121" r="4" fill="#f97316" opacity="0.6"/>
  <circle cx="56" cy="79" r="4" fill="#f97316" opacity="0.6"/>
</svg>
